<!-- TRIMA SMA over SMA length=5 -->
<svg xmlns="http://www.w3.org/2000/svg" viewBox="0 0 300 110" preserveAspectRatio="xMidYMid meet" overflow="visible" focusable="false"><style> svg { stroke: black; fill: black; } @media (prefers-color-scheme: dark) {   svg { stroke: white; fill: white; } }</style>
<g fill="none">
 <g stroke-width="1">
  <line x1="50" y1="12" x2="50" y2="22.5"/>
  <line x1="50" y1="32.5" x2="50" y2="98"/>

  <line x1="100" y1="12" x2="100" y2="22.5"/>
  <line x1="100" y1="32.5" x2="100" y2="50"/>
  <line x1="100" y1="60" x2="100" y2="98"/>

  <line x1="150" y1="12" x2="150" y2="22.5"/>
  <line x1="150" y1="32.5" x2="150" y2="50"/>
  <line x1="150" y1="60" x2="150" y2="77.5"/>
  <line x1="150" y1="87.5" x2="150" y2="98"/>

  <line x1="200" y1="12" x2="200" y2="50"/>
  <line x1="200" y1="60" x2="200" y2="77.5"/>
  <line x1="200" y1="87.5" x2="200" y2="98"/>

  <line x1="250" y1="12" x2="250" y2="77.5"/>
  <line x1="250" y1="87.5" x2="250" y2="98"/>

  <line x1="40" y1="27.5" x2="45" y2="27.5"/>
  <ellipse cx="50" cy="27.5" rx="5" ry="5" stroke-width="2"/>
  <line x1="55" y1="27.5" x2="95" y2="27.5" stroke-width="3"/>
  <ellipse cx="100" cy="27.5" rx="5" ry="5" stroke-width="2"/>
  <line x1="105" y1="27.5" x2="145" y2="27.5" stroke-width="3"/>
  <ellipse cx="150" cy="27.5" rx="5" ry="5" stroke-width="2"/>
  <line x1="155" y1="27.5" x2="260" y2="27.5"/>

  <line x1="40" y1="55" x2="95" y2="55"/>
  <ellipse cx="100" cy="55" rx="5" ry="5" stroke-width="2"/>
  <line x1="105" y1="55" x2="145" y2="55" stroke-width="3"/>
  <ellipse cx="150" cy="55" rx="5" ry="5" stroke-width="2"/>
  <line x1="155" y1="55" x2="195" y2="55" stroke-width="3"/>
  <ellipse cx="200" cy="55" rx="5" ry="5" stroke-width="2"/>
  <line x1="205" y1="55" x2="260" y2="55"/>

  <line x1="40" y1="82.5" x2="145" y2="82.5"/>
  <ellipse cx="150" cy="82.5" rx="5" ry="5" stroke-width="2"/>
  <line x1="155" y1="82.5" x2="195" y2="82.5" stroke-width="3"/>
  <ellipse cx="200" cy="82.5" rx="5" ry="5" stroke-width="2"/>
  <line x1="205" y1="82.5" x2="245" y2="82.5" stroke-width="3"/>
  <ellipse cx="250" cy="82.5" rx="5" ry="5" stroke-width="2"/>
  <line x1="255" y1="82.5" x2="260" y2="82.5"/>
 </g>
 <g stroke-width="1" text-anchor="start" font-family="sans-serif" font-size="14" xml:space="preserve">
  <text y="14" x="4">m</text>
  <text y="14" x="53">1</text>
  <text y="14" x="103">2</text>
  <text y="14" x="153">3</text>
  <text y="14" x="203">4</text>
  <text y="14" x="253">5</text>

  <text y="106" x="4">w</text>
  <text y="106" x="53">1</text>
  <text y="106" x="103">2</text>
  <text y="106" x="153">3</text>
  <text y="106" x="203">2</text>
  <text y="106" x="253">1</text>
 </g>
</g>
</svg>
