<!-- TRIMA SMA over SMA length=6 -->
<svg xmlns="http://www.w3.org/2000/svg" viewBox="0 0 300 110" preserveAspectRatio="xMidYMid meet" overflow="visible" focusable="false"><style> svg { stroke: black; fill: black; } @media (prefers-color-scheme: dark) {   svg { stroke: white; fill: white; } }</style>
<g fill="none">
 <g stroke-width="1">
  <line x1="25" y1="12" x2="25" y2="17"/>
  <line x1="25" y1="27" x2="25" y2="98"/>

  <line x1="75" y1="12" x2="75" y2="17"/>
  <line x1="75" y1="27" x2="75" y2="39"/>
  <line x1="75" y1="49" x2="75" y2="98"/>

  <line x1="125" y1="12" x2="125" y2="17"/>
  <line x1="125" y1="27" x2="125" y2="39"/>
  <line x1="125" y1="49" x2="125" y2="61"/>
  <line x1="125" y1="71" x2="125" y2="98"/>

  <line x1="175" y1="12" x2="175" y2="39"/>
  <line x1="175" y1="49" x2="175" y2="61"/>
  <line x1="175" y1="71" x2="175" y2="83"/>
  <line x1="175" y1="93" x2="175" y2="98"/>

  <line x1="225" y1="12" x2="225" y2="61"/>
  <line x1="225" y1="71" x2="225" y2="83"/>
  <line x1="225" y1="93" x2="225" y2="98"/>

  <line x1="275" y1="12" x2="275" y2="83"/>
  <line x1="275" y1="93" x2="275" y2="98"/>

  <line x1="15" y1="22" x2="20" y2="22"/>
  <ellipse cx="25" cy="22" rx="5" ry="5" stroke-width="2"/>
  <line x1="30" y1="22" x2="70" y2="22" stroke-width="3"/>
  <ellipse cx="75" cy="22" rx="5" ry="5" stroke-width="2"/>
  <line x1="80" y1="22" x2="120" y2="22" stroke-width="3"/>
  <ellipse cx="125" cy="22" rx="5" ry="5" stroke-width="2"/>
  <line x1="130" y1="22" x2="285" y2="22"/>

  <line x1="15" y1="44" x2="70" y2="44"/>
  <ellipse cx="75" cy="44" rx="5" ry="5" stroke-width="2"/>
  <line x1="80" y1="44" x2="120" y2="44" stroke-width="3"/>
  <ellipse cx="125" cy="44" rx="5" ry="5" stroke-width="2"/>
  <line x1="130" y1="44" x2="170" y2="44" stroke-width="3"/>
  <ellipse cx="175" cy="44" rx="5" ry="5" stroke-width="2"/>
  <line x1="180" y1="44" x2="285" y2="44"/>

  <line x1="15" y1="66" x2="120" y2="66"/>
  <ellipse cx="125" cy="66" rx="5" ry="5" stroke-width="2"/>
  <line x1="130" y1="66" x2="170" y2="66" stroke-width="3"/>
  <ellipse cx="175" cy="66" rx="5" ry="5" stroke-width="2"/>
  <line x1="180" y1="66" x2="220" y2="66" stroke-width="3"/>
  <ellipse cx="225" cy="66" rx="5" ry="5" stroke-width="2"/>
  <line x1="230" y1="66" x2="285" y2="66"/>

  <line x1="15" y1="88" x2="170" y2="88"/>
  <ellipse cx="175" cy="88" rx="5" ry="5" stroke-width="2"/>
  <line x1="180" y1="88" x2="220" y2="88" stroke-width="3"/>
  <ellipse cx="225" cy="88" rx="5" ry="5" stroke-width="2"/>
  <line x1="230" y1="88" x2="270" y2="88" stroke-width="3"/>
  <ellipse cx="275" cy="88" rx="5" ry="5" stroke-width="2"/>
  <line x1="280" y1="88" x2="285" y2="88"/>
 </g>
 <g stroke-width="1" text-anchor="start" font-family="sans-serif" font-size="14" xml:space="preserve">
  <text y="14" x="4">m</text>
  <text y="14" x="28">1</text>
  <text y="14" x="78">2</text>
  <text y="14" x="128">3</text>
  <text y="14" x="178">4</text>
  <text y="14" x="228">5</text>
  <text y="14" x="278">6</text>

  <text y="106" x="4">w</text>
  <text y="106" x="28">1</text>
  <text y="106" x="78">2</text>
  <text y="106" x="128">3</text>
  <text y="106" x="178">3</text>
  <text y="106" x="228">2</text>
  <text y="106" x="278">1</text>
 </g>
</g>
</svg>
