<!-- Discrete Hilbert transform impulse response -->
<svg xmlns="http://www.w3.org/2000/svg" viewBox="0 0 800 400" preserveAspectRatio="xMidYMid meet" overflow="visible" focusable="false"><style> svg { stroke: black; fill: black; } @media (prefers-color-scheme: dark) {   svg { stroke: white; fill: white; } }</style>
  <g stroke="currentColor">
    <line x1="50" y1="200" x2="750" y2="200" stroke-width="1"/>
    <line x1="450" y1="200" x2="450" y2="100" stroke-width="2"/>
    <line x1="440" y1="70" x2="460" y2="70" stroke-width="1"/>
    <line x1="550" y1="200" x2="550" y2="150" stroke-width="2"/>
    <line x1="540" y1="120" x2="560" y2="120" stroke-width="1"/>
    <line x1="650" y1="200" x2="650" y2="160" stroke-width="2"/>
    <line x1="640" y1="130" x2="660" y2="130" stroke-width="1"/>
    <line x1="750" y1="200" x2="750" y2="165" stroke-width="2"/>
    <line x1="740" y1="135" x2="760" y2="135" stroke-width="1"/>
    <line x1="350" y1="200" x2="350" y2="300" stroke-width="2"/>
    <line x1="340" y1="330" x2="360" y2="330" stroke-width="1"/>
    <line x1="250" y1="200" x2="250" y2="250" stroke-width="2"/>
    <line x1="240" y1="280" x2="260" y2="280" stroke-width="1"/>
    <line x1="150" y1="200" x2="150" y2="240" stroke-width="2"/>
    <line x1="140" y1="270" x2="160" y2="270" stroke-width="1"/>
    <line x1="50" y1="200" x2="50" y2="235" stroke-width="2"/>
    <line x1="40" y1="265" x2="60" y2="265" stroke-width="1"/>
  </g>
  <g fill="currentColor">
    <circle cx="50" cy="235" r="4"/>
    <circle cx="100" cy="200" r="4"/>
    <circle cx="150" cy="240" r="4"/>
    <circle cx="200" cy="200" r="4"/>
    <circle cx="250" cy="250" r="4"/>
    <circle cx="300" cy="200" r="4"/>
    <circle cx="350" cy="300" r="4"/>
    <circle cx="400" cy="200" r="4"/>
    <circle cx="450" cy="100" r="4"/>
    <circle cx="500" cy="200" r="4"/>
    <circle cx="550" cy="150" r="4"/>
    <circle cx="600" cy="200" r="4"/>
    <circle cx="650" cy="160" r="4"/>
    <circle cx="700" cy="200" r="4"/>
    <circle cx="750" cy="165" r="4"/>
  </g>
  <g stroke-width="0" text-anchor="middle" font-family="serif" font-weight="200" font-size="20" fill="currentColor" xml:space="preserve">
    <text x="30" y="200" font-size="24">...</text>
    <text x="770" y="200" font-size="24">...</text>
    <text x="450" y="65">2</text>
    <text x="450" y="85">π</text>
    <text x="550" y="115">2</text>
    <text x="550" y="140">3π</text>
    <text x="650" y="125">2</text>
    <text x="650" y="150">5π</text>
    <text x="750" y="130">2</text>
    <text x="750" y="155">7π</text>
    <text x="350" y="325">2</text>
    <text x="330" y="335">-</text>
    <text x="350" y="345">π</text>
    <text x="250" y="275">2</text>
    <text x="230" y="285">-</text>
    <text x="250" y="300">3π</text>
    <text x="150" y="265">2</text>
    <text x="130" y="275">-</text>
    <text x="150" y="290">5π</text>
    <text x="50" y="260">2</text>
    <text x="30" y="270">-</text>
    <text x="50" y="285">7π</text>
    <text x="400" y="225">0</text>
    <text x="450" y="225">1</text>
    <text x="500" y="225">2</text>
    <text x="550" y="225">3</text>
    <text x="600" y="225">4</text>
    <text x="650" y="225">5</text>
    <text x="700" y="225">6</text>
    <text x="750" y="225">7</text>
    <text x="350" y="190">-1</text>
    <text x="300" y="190">-2</text>
    <text x="250" y="190">-3</text>
    <text x="200" y="190">-4</text>
    <text x="150" y="190">-5</text>
    <text x="100" y="190">-6</text>
    <text x="50" y="190">-7</text>
  </g>
</svg>
